<?xml version="1.0" standalone="no"?>
<!DOCTYPE svg PUBLIC "-//W3C//DTD SVG 20010904//EN"
 "http://www.w3.org/TR/2001/REC-SVG-20010904/DTD/svg10.dtd">
<svg version="1.0" xmlns="http://www.w3.org/2000/svg"
 width="256.000000pt" height="256.000000pt" viewBox="0 0 256.000000 256.000000"
 preserveAspectRatio="xMidYMid meet">

<g transform="translate(0.000000,256.000000) scale(0.100000,-0.100000)"
fill="#000000" stroke="none">
<path d="M1115 2469 c-483 -70 -874 -423 -996 -899 -112 -431 41 -908 383
-1199 489 -416 1198 -382 1643 81 219 226 335 513 335 828 0 326 -120 613
-354 846 -112 111 -186 166 -315 229 -210 104 -471 147 -696 114z m220 -274
c25 -24 25 -27 25 -195 0 -168 0 -171 -25 -195 -38 -39 -102 -27 -124 22 -15
32 -15 314 0 347 22 48 86 60 124 21z m-508 -348 c104 -104 123 -128 123 -154
0 -40 -27 -71 -68 -79 -31 -6 -38 -1 -159 119 -111 109 -126 129 -126 157 0
24 8 40 27 57 51 43 69 34 203 -100z m1121 87 c43 -48 33 -67 -101 -201 -102
-102 -128 -123 -153 -123 -64 0 -103 65 -69 116 23 36 217 225 240 234 28 12
56 3 83 -26z m-565 -229 c83 -21 133 -50 198 -112 179 -171 179 -455 0 -626
-65 -62 -115 -91 -198 -112 -274 -71 -543 139 -543 425 0 286 269 497 543 425z
m-628 -370 c39 -38 27 -102 -22 -124 -32 -15 -314 -15 -346 0 -49 22 -61 86
-22 124 24 25 27 25 195 25 168 0 171 0 195 -25z m1418 14 c49 -22 61 -86 22
-124 -24 -25 -27 -25 -195 -25 -168 0 -171 0 -195 25 -37 37 -28 101 19 123
29 15 318 15 349 1z m-1254 -416 c11 -10 24 -33 27 -51 6 -31 1 -38 -119 -159
-109 -111 -129 -126 -157 -126 -24 0 -40 8 -57 27 -43 51 -34 69 100 203 104
104 128 123 154 123 17 0 40 -8 52 -17z m874 -60 c136 -129 170 -170 170 -205
0 -38 -41 -78 -81 -78 -39 0 -272 234 -272 274 0 51 32 84 83 85 10 1 55 -34
100 -76z m-480 -104 c40 -18 47 -49 47 -209 0 -160 -7 -191 -47 -209 -37 -17
-62 -13 -88 14 -25 24 -25 27 -25 195 0 168 0 171 25 195 26 27 51 31 88 14z"/>
<path d="M1189 1544 c-64 -19 -141 -90 -169 -156 -28 -66 -25 -170 8 -234 30
-58 105 -121 165 -139 95 -28 87 -52 87 265 l0 280 -22 -1 c-13 0 -44 -7 -69
-15z"/>
</g>
</svg>
