<?xml version="1.0" standalone="no"?>
<!DOCTYPE svg PUBLIC "-//W3C//DTD SVG 20010904//EN"
 "http://www.w3.org/TR/2001/REC-SVG-20010904/DTD/svg10.dtd">
<svg version="1.0" xmlns="http://www.w3.org/2000/svg"
 width="512.000000pt" height="512.000000pt" viewBox="0 0 512.000000 512.000000"
 preserveAspectRatio="xMidYMid meet">

<g transform="translate(0.000000,512.000000) scale(0.100000,-0.100000)"
fill="#000000" stroke="none">
<path d="M2335 4950 c-780 -87 -1445 -511 -1837 -1173 -221 -372 -329 -774
-329 -1217 0 -278 33 -494 116 -745 202 -614 643 -1122 1220 -1405 237 -116
462 -187 720 -226 167 -26 513 -26 680 0 508 77 961 300 1324 651 321 311 545
693 655 1118 64 244 71 303 71 607 0 304 -7 363 -71 607 -173 669 -638 1239
-1259 1543 -236 116 -465 188 -715 225 -133 20 -456 28 -575 15z m426 -320
c875 -88 1597 -703 1814 -1545 47 -182 65 -327 65 -520 0 -469 -136 -880 -415
-1254 -621 -833 -1784 -1075 -2685 -559 -370 212 -653 513 -840 893 -148 302
-211 574 -211 915 0 250 35 466 113 690 40 116 155 347 224 450 430 647 1178
1006 1935 930z"/>
<path d="M2488 4420 c-20 -11 -47 -36 -60 -57 -23 -38 -23 -39 -23 -363 0
-321 0 -325 23 -362 25 -40 91 -78 137 -78 39 0 106 35 130 68 19 25 20 45 23
360 3 328 2 333 -19 372 -41 72 -136 99 -211 60z"/>
<path d="M1290 3929 c-86 -35 -128 -150 -81 -224 24 -38 416 -435 454 -459 16
-11 47 -19 75 -19 117 -2 193 109 151 220 -15 41 -425 451 -474 474 -44 20
-87 23 -125 8z"/>
<path d="M3700 3909 c-42 -26 -410 -389 -447 -441 -70 -102 3 -248 124 -248
25 0 59 7 77 15 18 9 129 113 248 233 232 233 249 257 234 336 -8 41 -46 90
-87 111 -41 22 -108 19 -149 -6z"/>
<path d="M2417 3430 c-199 -36 -363 -125 -504 -273 -316 -332 -316 -862 0
-1194 119 -125 239 -199 404 -250 79 -24 104 -26 238 -26 134 0 159 2 238 26
319 98 555 351 622 667 19 92 19 268 0 360 -67 317 -306 573 -622 666 -97 28
-286 41 -376 24z m143 -870 l0 -560 -32 0 c-109 1 -257 64 -351 151 -118 108
-178 246 -178 409 0 205 105 387 285 489 59 34 179 70 239 70 l37 1 0 -560z"/>
<path d="M760 2702 c-40 -22 -80 -90 -80 -135 0 -48 37 -114 78 -139 37 -23
41 -23 362 -23 321 0 325 0 362 23 40 25 78 91 78 137 0 39 -35 106 -68 130
-26 19 -45 20 -362 23 -312 2 -337 1 -370 -16z"/>
<path d="M3684 2711 c-70 -18 -124 -86 -124 -158 0 -47 37 -108 80 -132 39
-21 44 -22 372 -19 315 3 335 4 360 23 33 24 68 91 68 130 0 46 -38 112 -78
137 -36 23 -43 23 -342 25 -168 1 -319 -2 -336 -6z"/>
<path d="M1664 1884 c-17 -8 -127 -112 -246 -232 -177 -178 -218 -225 -228
-259 -42 -142 114 -259 236 -177 39 27 422 410 451 452 22 32 21 112 -3 153
-43 72 -135 100 -210 63z"/>
<path d="M3327 1885 c-70 -24 -107 -75 -107 -145 0 -23 7 -56 15 -74 9 -18
113 -129 233 -248 233 -232 257 -249 336 -234 41 8 90 46 111 87 20 37 19 102
-1 142 -19 37 -391 416 -443 451 -47 31 -97 38 -144 21z"/>
<path d="M2480 1537 c-80 -42 -81 -45 -78 -427 3 -317 4 -336 23 -362 24 -33
91 -68 130 -68 46 0 112 38 137 78 23 37 23 41 23 362 0 321 0 325 -23 362
-25 41 -91 78 -139 78 -16 0 -49 -10 -73 -23z"/>
</g>
</svg>
